<svg xmlns="http://www.w3.org/2000/svg" width="720" height="88" viewBox="0 0 720 88" preserveAspectRatio="none">
  <style>
    .paper {
      fill: #FFFDF8;
      opacity: 0.7;
    }

    .frame {
      fill: none;
      stroke: #CDBEAE;
      stroke-linecap: round;
      stroke-linejoin: round;
      stroke-width: 1.5;
    }

    .frame-brush {
      fill: none;
      opacity: 0.5;
      stroke: #CDBEAE;
      stroke-linecap: round;
      stroke-linejoin: round;
      stroke-width: 2.2;
    }

    .frame-hairline {
      fill: none;
      opacity: 0.42;
      stroke: #8B7C6F;
      stroke-linecap: round;
      stroke-linejoin: round;
      stroke-width: 0.7;
    }

    @media (prefers-color-scheme: dark) {
      .paper {
        fill: #2A2420;
        opacity: 0.88;
      }

      .frame,
      .frame-brush {
        stroke: #3D3028;
      }

      .frame-hairline {
        stroke: #9B8C82;
        opacity: 0.24;
      }
    }
  </style>
  <path class="paper" d="M8.3 5.2 C90.0 3.4 172.0 6.2 254.0 4.7 C342.0 3.1 430.0 6.4 518.0 4.8 C599.0 3.2 666.0 6.1 711.1 4.9 C716.8 5.0 719.0 8.8 718.2 14.6 C716.3 31.2 719.0 49.6 717.7 67.3 C718.3 77.8 714.1 84.5 704.4 83.9 C588.0 85.0 471.0 82.6 354.0 84.0 C237.0 85.4 121.0 82.3 8.0 83.7 C4.2 82.8 1.7 79.2 2.4 74.6 C4.0 55.0 1.2 35.1 2.9 15.4 C2.0 9.4 4.1 5.9 8.3 5.2 Z" />
  <path class="frame-brush" d="M10.2 5.0 C55.0 2.8 101.0 7.2 146.0 4.7 C203.0 1.8 259.0 7.6 316.0 4.5 C373.0 1.4 430.0 7.6 488.0 4.5 C544.0 1.7 602.0 7.2 658.0 4.8 C678.0 3.8 696.0 5.9 711.0 5.0 M717.5 14.4 C715.2 24.5 720.5 35.6 717.4 45.8 C714.6 54.9 720.0 65.3 716.0 75.0 C714.2 80.2 711.2 83.1 704.2 83.5 M703.0 83.5 C636.0 86.2 569.0 80.9 502.0 83.9 C429.0 87.1 357.0 80.7 284.0 83.8 C212.0 86.9 140.0 80.7 68.0 83.6 C42.0 84.6 21.0 81.5 8.4 83.2 M7.0 81.1 C2.1 75.1 7.6 66.0 3.1 59.0 C-1.0 52.5 6.0 43.2 2.4 35.8 C-0.9 29.0 5.7 19.7 3.0 12.8 C2.1 9.2 5.0 5.9 10.2 5.0" />
  <path class="frame" d="M8.8 5.3 C75.0 3.2 142.0 6.3 209.0 4.8 C286.0 3.0 363.0 6.7 441.0 4.7 C518.0 2.6 595.0 6.4 672.0 4.9 C686.0 4.7 699.0 5.5 710.6 5.0 C716.0 5.2 718.2 8.8 717.6 14.4 M717.6 14.4 C716.5 28.2 719.4 42.4 717.7 56.1 C716.3 68.6 718.5 79.1 713.0 82.2 C710.6 83.6 707.6 83.8 704.0 83.6 M704.0 83.6 C617.0 85.4 530.0 82.2 443.0 84.0 C350.0 85.9 257.0 82.1 164.0 83.9 C100.0 85.2 48.0 82.3 8.6 83.3 M8.6 83.3 C4.4 82.4 1.8 79.0 2.5 74.8 C3.8 61.5 1.5 48.0 2.7 34.5 C3.9 22.9 1.4 11.8 4.3 7.9 C5.3 6.5 6.8 5.6 8.8 5.3" />
  <path class="frame-hairline" d="M12.5 8.1 C101.0 6.5 190.0 8.8 279.0 7.3 C369.0 5.7 458.0 9.0 548.0 7.4 C613.0 6.2 672.0 8.4 710.0 7.2 M714.5 18.2 C714.6 33.2 716.0 47.7 714.8 62.5 C714.0 72.2 715.1 79.0 708.6 81.3 M699.0 81.4 C600.0 83.3 501.0 80.8 402.0 82.3 C301.0 83.8 201.0 80.7 100.0 82.2 C60.0 82.8 28.0 81.4 11.2 81.8 M6.5 73.8 C7.8 59.1 5.0 44.4 6.4 29.8 C7.2 19.8 5.3 11.2 12.5 8.1" />
</svg>
